HIERARCHY
ROOT Hips
{
	OFFSET 0.00000 0.00000 0.00000
	CHANNELS 6 Xposition Yposition Zposition Zrotation Yrotation Xrotation 
	JOINT LHipJoint
	{
		OFFSET 0 0 0
		CHANNELS 3 Zrotation Yrotation Xrotation
		JOINT LeftUpLeg
		{
			OFFSET 1.59801 -1.77853 0.57028
			CHANNELS 3 Zrotation Yrotation Xrotation
			JOINT LeftLeg
			{
				OFFSET 2.39439 -6.57854 0.00000
				CHANNELS 3 Zrotation Yrotation Xrotation
				JOINT LeftFoot
				{
					OFFSET 2.69334 -7.39989 0.00000
					CHANNELS 3 Zrotation Yrotation Xrotation
					JOINT LeftToeBase
					{
						OFFSET 0.09553 -0.26245 1.73747
						CHANNELS 3 Zrotation Yrotation Xrotation
						End Site
						{
							OFFSET 0.00000 -0.00000 0.89391
						}
					}
				}
			}
		}
	}
	JOINT RHipJoint
	{
		OFFSET 0 0 0
		CHANNELS 3 Zrotation Yrotation Xrotation
		JOINT RightUpLeg
		{
			OFFSET -1.54704 -1.77852 0.57028
			CHANNELS 3 Zrotation Yrotation Xrotation
			JOINT RightLeg
			{
				OFFSET -2.40286 -6.60180 0.00000
				CHANNELS 3 Zrotation Yrotation Xrotation
				JOINT RightFoot
				{
					OFFSET -2.63873 -7.24984 0.00000
					CHANNELS 3 Zrotation Yrotation Xrotation
					JOINT RightToeBase
					{
						OFFSET -0.15631 -0.42945 1.84436
						CHANNELS 3 Zrotation Yrotation Xrotation
						End Site
						{
							OFFSET -0.00000 -0.00000 0.95734
						}
					}
				}
			}
		}
	}
	JOINT LowerBack
	{
		OFFSET 0 0 0
		CHANNELS 3 Zrotation Yrotation Xrotation
		JOINT Spine
		{
			OFFSET -0.00436 1.89866 -0.04018
			CHANNELS 3 Zrotation Yrotation Xrotation
			JOINT Spine1
			{
				OFFSET 0.02031 1.88273 0.09634
				CHANNELS 3 Zrotation Yrotation Xrotation
				JOINT Neck
				{
					OFFSET 0 0 0
					CHANNELS 3 Zrotation Yrotation Xrotation
					JOINT Neck1
					{
						OFFSET -0.13105 1.89371 0.23083
						CHANNELS 3 Zrotation Yrotation Xrotation
						JOINT Head
						{
							OFFSET 0.17062 1.83990 -0.54062
							CHANNELS 3 Zrotation Yrotation Xrotation
							End Site
							{
								OFFSET 0.04576 1.94782 -0.21839
							}
						}
					}
				}
				JOINT LeftShoulder
				{
					OFFSET 0 0 0
					CHANNELS 3 Zrotation Yrotation Xrotation
					JOINT LeftArm
					{
						OFFSET 3.12424 1.09204 0.22226
						CHANNELS 3 Zrotation Yrotation Xrotation
						JOINT LeftForeArm
						{
							OFFSET 5.29277 -0.00000 0.00000
							CHANNELS 3 Zrotation Yrotation Xrotation
							JOINT LeftHand
							{
								OFFSET 2.85226 -0.00000 0.00000
								CHANNELS 3 Zrotation Yrotation Xrotation
								JOINT LeftFingerBase
								{
									OFFSET 0 0 0
									CHANNELS 3 Zrotation Yrotation Xrotation
									JOINT LeftHandIndex1
									{
										OFFSET 0.60210 -0.00000 0.00000
										CHANNELS 3 Zrotation Yrotation Xrotation
										End Site
										{
											OFFSET 0.48543 -0.00000 0.00000
										}
									}
								}
								JOINT LThumb
								{
									OFFSET 0 0 0
									CHANNELS 3 Zrotation Yrotation Xrotation
									End Site
									{
										OFFSET 0.49284 -0.00000 0.49284
									}
								}
							}
						}
					}
				}
				JOINT RightShoulder
				{
					OFFSET 0 0 0
					CHANNELS 3 Zrotation Yrotation Xrotation
					JOINT RightArm
					{
						OFFSET -2.91709 1.01504 0.30199
						CHANNELS 3 Zrotation Yrotation Xrotation
						JOINT RightForeArm
						{
							OFFSET -5.13304 -0.00000 0.00000
							CHANNELS 3 Zrotation Yrotation Xrotation
							JOINT RightHand
							{
								OFFSET -2.74305 -0.00000 0.00000
								CHANNELS 3 Zrotation Yrotation Xrotation
								JOINT RightFingerBase
								{
									OFFSET 0 0 0
									CHANNELS 3 Zrotation Yrotation Xrotation
									JOINT RightHandIndex1
									{
										OFFSET -0.76798 -0.00000 0.00000
										CHANNELS 3 Zrotation Yrotation Xrotation
										End Site
										{
											OFFSET -0.61916 -0.00000 0.00000
										}
									}
								}
								JOINT RThumb
								{
									OFFSET 0 0 0
									CHANNELS 3 Zrotation Yrotation Xrotation
									End Site
									{
										OFFSET -0.62862 -0.00000 0.62862
									}
								}
							}
						}
					}
				}
			}
		}
	}
}
MOTION
Frames: 11
Frame Time: .0083333
0.0387 17.4075 0.024 0 0 0 0 0 0 -21 0 0 0 0 0 0 0 0 0 0 0 0 0 0 21 0 0 0 0 0 0 0 0 0 0 0 0 0 0 0 0 0 0 0 0 0 0 -16 0 0 21 0 0 11 0 0 0 -8 0 0 0 0 0 0 0 0 0 0 0 0 0 0 0 0 0 0 0 0 8 0 0 0 0 0 0 0 0 0 0 0 0 0 0 0 0 0
0.0387 17.4075 0.0240 -1.9256 7.2853 1.2450 0.0000 0.0000 0.0000 -17.7931 -18.9316 3.9295 0.7831 5.6495 15.7707 0.7323 0.9369 -16.5322 0.6099 -4.9984 -13.9039 0.0000 0.0000 0.0000 22.2398 2.1147 10.3762 0.0000 0.0000 -0.0000 0.1246 -10.8240 -13.3532 -0.1420 2.4283 -6.6909 0.5184 2.2652 -6.6808 -0.6588 2.9959 -5.3850 -0.8166 1.4803 -1.7510 -19.4057 -14.1284 -0.6471 11.7500 -23.6169 37.7275 4.3837 -11.6399 18.3449 0.0000 0.0000 0.0000 34.3119 -51.4619 -60.2472 154.1074 -37.1025 -111.1772 -0.0000 0.0000 -34.1585 18.6510 40.8181 12.4418 -7.1250 0.0000 -0.0000 -26.6994 70.6998 -16.7555 0.0000 0.0000 0.0000 79.1574 57.3296 38.9747 -148.0923 42.4734 -107.3216 0.0000 -0.0000 -1.5845 -24.2518 19.7865 -8.6710 7.1250 -0.0000 -0.0000 2.6424 -8.4654 2.2270
0.0391 17.4092 0.0205 -1.9669 7.1879 1.2906 0.0000 0.0000 0.0000 -17.7437 -18.9719 3.8799 0.7839 5.6524 15.7790 0.7421 0.9573 -16.6489 0.5411 -4.7131 -13.0921 0.0000 0.0000 0.0000 22.2843 2.2368 10.3335 0.0000 0.0000 -0.0000 0.1264 -10.8332 -13.3345 -0.1421 2.4297 -6.6949 0.6009 2.3034 -6.6210 -0.6568 3.0433 -5.4392 -0.8622 1.5012 -1.8355 -19.2892 -14.1126 -0.4763 11.6979 -23.5055 37.2425 4.3733 -11.5978 17.9453 0.0000 -0.0000 0.0000 34.0304 -51.5882 -60.1887 154.3987 -36.8123 -111.3524 -0.0000 0.0000 -34.6339 18.6893 40.6552 12.4286 -7.1250 0.0000 -0.0000 -26.3785 70.5745 -16.4732 0.0000 -0.0000 0.0000 79.1875 57.1312 39.1492 -148.1658 42.4146 -107.3711 0.0000 -0.0000 -1.5787 -24.4468 19.8742 -8.7853 7.1250 -0.0000 -0.0000 2.5256 -8.3397 2.1347
0.0406 17.4095 0.0163 -1.9610 7.0627 1.3190 0.0000 0.0000 0.0000 -17.7501 -18.9576 3.8838 0.7789 5.6347 15.7281 0.7443 1.0039 -16.6923 0.5105 -4.5799 -12.7142 0.0000 0.0000 0.0000 22.2739 2.3781 10.3151 0.0000 -0.0000 0.0000 0.1289 -10.8199 -13.2660 -0.1586 2.5657 -7.0717 0.5628 2.2745 -6.5735 -0.5757 3.0074 -5.4332 -0.7615 1.4855 -1.8625 -19.2840 -14.0665 -0.4471 11.6775 -23.3269 36.7610 4.3971 -11.5305 17.6028 0.0000 0.0000 0.0000 33.5570 -51.4609 -60.1398 154.7172 -36.4917 -111.5425 -0.0000 0.0000 -35.3460 18.8182 40.4744 12.4732 -7.1250 0.0000 -0.0000 -25.9243 70.4631 -16.1143 0.0000 0.0000 0.0000 79.3557 57.1080 39.5257 -148.2162 42.3741 -107.4051 0.0000 -0.0000 -1.7682 -24.5277 19.6752 -8.7343 7.1250 -0.0000 -0.0000 2.4541 -8.5395 2.0644
0.0424 17.4090 0.0138 -1.9577 6.9599 1.3460 0.0000 0.0000 0.0000 -17.7578 -18.9379 3.8766 0.7756 5.6230 15.6945 0.7410 1.1112 -16.7010 0.5113 -4.5835 -12.7244 0.0000 0.0000 0.0000 22.2649 2.4940 10.3010 0.0000 0.0000 0.0000 0.1296 -10.8279 -13.2672 -0.1588 2.5677 -7.0774 0.4977 2.2014 -6.5590 -0.4448 2.9138 -5.3413 -0.5937 1.4431 -1.7865 -19.3330 -14.0654 -0.6666 11.6294 -23.1646 36.2823 4.3896 -11.4624 17.3366 0.0000 -0.0000 0.0000 33.1151 -51.1512 -60.1856 155.0377 -36.1655 -111.7323 -0.0000 0.0000 -35.7753 18.8224 40.1774 12.4025 -7.1250 0.0000 -0.0000 -25.4360 70.2100 -15.6573 0.0000 -0.0000 0.0000 79.5645 57.2776 39.9811 -148.2364 42.3579 -107.4187 0.0000 -0.0000 -2.0004 -24.4706 19.7365 -8.7373 7.1250 -0.0000 -0.0000 2.4969 -8.4832 2.1033
0.0446 17.4091 0.0113 -1.9113 6.8777 1.3554 0.0000 0.0000 0.0000 -17.8272 -18.9396 3.8857 0.7745 5.6192 15.6836 0.7325 1.2576 -16.6706 0.5754 -4.8575 -13.5024 0.0000 0.0000 0.0000 22.2057 2.5794 10.3059 0.0000 0.0000 -0.0000 0.1298 -10.8195 -13.2496 -0.1605 2.5813 -7.1152 0.5030 2.2179 -6.4784 -0.4855 2.9354 -5.3326 -0.6404 1.4529 -1.8193 -19.1760 -14.0776 -0.5724 11.6746 -23.1238 35.7150 4.3931 -11.4313 16.9648 0.0000 0.0000 0.0000 32.9364 -51.1536 -60.1965 155.3661 -35.8274 -111.9254 -0.0000 0.0000 -36.0014 18.8642 40.1281 12.4190 -7.1250 0.0000 -0.0000 -25.3070 70.1812 -15.5586 0.0000 0.0000 0.0000 79.6882 57.2275 40.1356 -148.2904 42.3145 -107.4551 0.0000 -0.0000 -2.0336 -24.5463 19.8861 -8.8302 7.1250 -0.0000 -0.0000 2.4629 -8.3105 2.0831
0.0464 17.4103 0.0086 -1.9119 6.8273 1.3913 0.0000 0.0000 0.0000 -17.8253 -18.9556 3.8703 0.7736 5.6159 15.6739 0.7351 1.2635 -16.7010 0.5497 -4.7498 -13.1963 0.0000 0.0000 0.0000 22.2036 2.6465 10.2733 0.0000 -0.0000 0.0000 0.1429 -10.9149 -13.1650 -0.1680 2.6409 -7.2805 0.5981 2.2897 -6.4253 -0.5838 3.0265 -5.4323 -0.7950 1.4934 -1.9410 -19.0623 -14.0577 -0.0842 11.8556 -23.1359 35.0864 4.4830 -11.4417 16.5264 -0.0000 -0.0000 0.0000 32.7493 -51.3980 -60.0530 155.6760 -35.5051 -112.1060 -0.0000 0.0000 -36.1685 18.8940 40.0541 12.4210 -7.1250 0.0000 -0.0000 -25.1534 70.1272 -15.4304 -0.0000 -0.0000 0.0000 79.6904 56.9370 40.0963 -148.3680 42.2518 -107.5073 0.0000 -0.0000 -2.0041 -24.7167 19.8930 -8.9016 7.1250 -0.0000 -0.0000 2.3543 -8.2749 1.9927
0.0490 17.4130 0.0065 -2.0050 6.7664 1.4273 0.0000 0.0000 0.0000 -17.7130 -18.9492 3.8170 0.7745 5.6193 15.6836 0.7445 1.2001 -16.7765 0.4894 -4.4854 -12.4465 0.0000 0.0000 0.0000 22.2961 2.7305 10.2325 0.0000 -0.0000 0.0000 0.1478 -10.9486 -13.1295 -0.1644 2.6123 -7.2012 0.7494 2.3199 -6.4488 -0.5762 3.0600 -5.4488 -0.8692 1.5058 -1.9373 -19.0563 -14.0454 0.1969 12.0018 -23.1074 34.5004 4.5635 -11.4378 16.1704 0.0000 -0.0000 0.0000 32.4974 -51.4578 -59.9072 156.0432 -35.1186 -112.3183 -0.0000 0.0000 -36.1672 19.0473 40.0091 12.5148 -7.1250 0.0000 -0.0000 -24.8986 70.1385 -15.2737 0.0000 -0.0000 0.0000 79.7419 56.8364 40.2324 -148.4473 42.1876 -107.5606 0.0000 -0.0000 -1.9690 -24.7714 19.7479 -8.8621 7.1250 -0.0000 -0.0000 2.3046 -8.4214 1.9439
0.0518 17.4146 0.0027 -2.0043 6.6718 1.5123 0.0000 0.0000 0.0000 -17.7032 -18.9760 3.7221 0.7759 5.6239 15.6971 0.7423 1.2872 -16.7902 0.4892 -4.4848 -12.4448 0.0000 0.0000 0.0000 22.2814 2.8635 10.1551 0.0000 0.0000 -0.0000 0.1497 -10.9570 -13.1088 -0.1637 2.6067 -7.1855 0.7694 2.3180 -6.4776 -0.5393 3.0565 -5.4241 -0.8407 1.5043 -1.8968 -19.0847 -14.0541 0.2732 12.0928 -23.0658 33.9781 4.6106 -11.4237 15.8925 0.0000 0.0000 0.0000 32.1964 -51.4108 -59.8186 156.3624 -34.7787 -112.5012 -0.0000 0.0000 -36.0700 18.9627 40.0408 12.4647 -7.1250 0.0000 -0.0000 -25.0502 70.1382 -15.3704 0.0000 0.0000 0.0000 79.8736 56.8487 40.4920 -148.4673 42.1714 -107.5741 0.0000 -0.0000 -1.8456 -24.8462 19.8474 -8.9344 7.1250 -0.0000 -0.0000 2.2666 -8.3022 1.9171
0.0547 17.4141 0.0006 -2.0091 6.6263 1.5475 0.0000 0.0000 0.0000 -17.7053 -18.9956 3.6850 0.7774 5.6292 15.7124 0.7378 1.3379 -16.7631 0.5120 -4.5864 -12.7325 0.0000 0.0000 0.0000 22.2732 2.9259 10.1229 0.0000 0.0000 -0.0000 0.1516 -10.9718 -13.0982 -0.1626 2.5980 -7.1615 0.8210 2.3114 -6.4571 -0.5192 3.0455 -5.3652 -0.8485 1.4980 -1.8457 -19.0810 -14.0885 0.2021 12.1500 -23.0510 33.5634 4.6222 -11.4100 15.7013 0.0000 0.0000 0.0000 31.9315 -51.3980 -59.7285 156.6710 -34.4466 -112.6764 -0.0000 0.0000 -35.8424 18.6704 39.9876 12.2513 -7.1250 0.0000 -0.0000 -25.3152 69.9970 -15.4617 0.0000 0.0000 0.0000 79.9988 56.9412 40.7534 -148.4764 42.1640 -107.5802 0.0000 -0.0000 -1.7043 -24.9321 20.0016 -9.0347 7.1250 -0.0000 -0.0000 2.2272 -8.1223 1.8916
0.0569 17.4135 -0.0000 -1.9673 6.5785 1.5553 0.0000 0.0000 0.0000 -17.7734 -18.9937 3.6986 0.7759 5.6241 15.6976 0.7400 1.4245 -16.8262 0.5233 -4.6362 -12.8737 0.0000 0.0000 0.0000 22.2126 2.9722 10.1347 0.0000 -0.0000 0.0000 0.1492 -10.9465 -13.1010 -0.1556 2.5418 -7.0057 0.8091 2.3264 -6.4088 -0.5187 3.0664 -5.3724 -0.8427 1.5086 -1.8801 -19.1256 -14.1018 0.3625 12.2426 -23.0518 33.1494 4.6719 -11.4201 15.4811 -0.0000 -0.0000 0.0000 31.5903 -51.4972 -59.5048 156.9172 -34.1792 -112.8153 -0.0000 0.0000 -35.4819 18.6651 39.9508 12.2386 -7.1250 0.0000 -0.0000 -25.2637 69.9635 -15.4103 -0.0000 -0.0000 0.0000 80.0330 56.8644 40.9227 -148.5319 42.1190 -107.6174 0.0000 -0.0000 -1.6166 -25.0492 19.9983 -9.0809 7.1250 -0.0000 -0.0000 2.1519 -8.1060 1.8283
